<svg xmlns="http://www.w3.org/2000/svg" width="375" viewBox="0 0 375 375" height="375" version="1.0"><defs><clipPath id="a"><path d="M 176 0.167969 L 369.808594 0.167969 L 369.808594 190.660156 L 176 190.660156 Z M 176 0.167969"/></clipPath><clipPath id="b"><path d="M 118 235 L 241 235 L 241 358.757812 L 118 358.757812 Z M 118 235"/></clipPath></defs><path fill="#001F54" d="M 70.820312 102.695312 C 150.835938 8.964844 332.042969 172.621094 181.9375 259.027344 C 90.960938 313.597656 -0.0117188 190.8125 63.671875 113.503906 L 70.820312 102.695312"/><path fill="#A2999E" d="M 355.046875 344.695312 C 334.863281 374.800781 276.351562 333.15625 317.261719 302.804688 C 341.980469 283.769531 372.738281 316.539062 356.769531 341.292969 L 355.046875 344.695312"/><g clip-path="url(#a)"><path fill="#A2999E" d="M 179.972656 99.132812 C 177.089844 79.863281 180.941406 60.523438 191.929688 44.339844 C 202.378906 28.953125 218.203125 17.824219 235.253906 10.832031 C 269.082031 -3.042969 312.929688 -1.84375 341.226562 23.460938 C 356.453125 37.078125 364.347656 56.410156 366.421875 76.441406 C 367.804688 89.785156 366.621094 103.300781 364.191406 116.449219 C 361.703125 129.902344 357.226562 142.621094 349.351562 153.898438 C 320.332031 195.476562 258.753906 197.25 219.703125 169.566406 C 207.867188 161.175781 198.179688 149.867188 191.667969 136.910156 C 185.703125 125.035156 183.542969 111.828125 179.972656 99.132812 C 179.667969 98.050781 176.871094 98.773438 177.167969 99.835938 C 180.113281 110.308594 182.003906 121.199219 186.035156 131.316406 C 190.566406 142.6875 197.5625 152.972656 206.257812 161.566406 C 222.988281 178.105469 245.890625 187.582031 269.171875 189.621094 C 291.960938 191.617188 315.664062 186.007812 334.171875 172.324219 C 355.59375 156.484375 365.074219 132.378906 368.515625 106.714844 C 371.503906 84.417969 369.78125 60.816406 358.632812 40.867188 C 349.742188 24.960938 335.054688 13.414062 318.1875 6.910156 C 283.980469 -6.277344 242.070312 0.605469 212.289062 21.316406 C 200.28125 29.671875 190.101562 40.726562 183.644531 53.90625 C 176.660156 68.167969 174.832031 84.222656 177.167969 99.835938 C 177.324219 100.894531 180.144531 100.261719 179.972656 99.132812"/></g><path fill="#A2999E" d="M 186.574219 77.753906 C 188.359375 57.894531 197.398438 39.949219 213.003906 27.398438 C 227.953125 15.375 247.230469 9.554688 266.171875 8.371094 C 303.660156 6.023438 345.976562 23.28125 359.128906 60.953125 C 367.023438 83.566406 362.242188 108.296875 353.417969 129.875 C 347.886719 143.414062 340.554688 155.867188 329.507812 165.640625 C 319.933594 174.109375 308.140625 179.671875 295.671875 182.296875 C 270.949219 187.503906 244.46875 180.398438 224.03125 166.070312 C 202.4375 150.929688 188.492188 126.9375 186.921875 100.546875 C 186.46875 92.921875 186.851562 85.1875 186.574219 77.53125 C 186.535156 76.519531 183.722656 77.074219 183.765625 78.234375 C 184.171875 89.425781 183.398438 100.730469 185.351562 111.800781 C 187.558594 124.316406 192.851562 136.152344 200.28125 146.425781 C 214.707031 166.367188 237.511719 179.710938 261.566406 184.125 C 285.082031 188.4375 309.847656 183.523438 328.828125 168.691406 C 339.59375 160.28125 347.660156 148.871094 353.242188 136.488281 C 358.757812 124.246094 363.160156 111.554688 365.042969 98.214844 C 367.867188 78.199219 364.035156 57.683594 351.898438 41.269531 C 340.882812 26.382812 324.234375 16.546875 306.714844 11.234375 C 271.753906 0.632812 227.886719 6.886719 202.3125 34.667969 C 191.328125 46.597656 185.207031 61.953125 183.765625 78.015625 C 183.652344 79.257812 186.480469 78.785156 186.574219 77.753906"/><path fill="#A2999E" d="M 226.917969 95.339844 C 223.980469 75.015625 235.640625 57.699219 253.828125 49.355469 C 270.703125 41.621094 292.328125 41.558594 307.734375 52.703125 C 327.109375 66.726562 327.886719 96.183594 319.609375 116.589844 C 309.507812 141.503906 279.457031 148.410156 256.433594 137.953125 C 247.898438 134.078125 240.648438 127.789062 235.554688 119.933594 C 230.6875 112.421875 229.265625 103.800781 226.917969 95.339844 C 226.617188 94.261719 223.816406 94.980469 224.109375 96.046875 C 225.507812 101.082031 226.453125 106.292969 228.164062 111.226562 C 230.167969 116.992188 233.382812 122.304688 237.378906 126.902344 C 245.035156 135.714844 255.945312 141.332031 267.3125 143.546875 C 290.367188 148.03125 314.34375 137.265625 323.007812 114.839844 C 330.8125 94.648438 329.269531 66.867188 311.429688 52.441406 C 297.226562 40.960938 276.765625 40.027344 259.90625 45.300781 C 237.503906 52.304688 220.59375 71.683594 224.109375 96.046875 C 224.265625 97.105469 227.082031 96.472656 226.917969 95.339844"/><path fill="#A2999E" d="M 234.390625 84.695312 C 236.382812 63.25 255.089844 50.984375 275.5625 51.042969 C 295.085938 51.09375 314.75 62.460938 318.015625 82.878906 C 320.019531 95.414062 315.578125 109.59375 308.867188 120.09375 C 301.527344 131.582031 288.691406 137.292969 275.273438 136.296875 C 262.628906 135.355469 250.671875 128.546875 242.945312 118.601562 C 239 113.519531 236.449219 107.527344 235.214844 101.238281 C 234.136719 95.757812 234.589844 90.042969 234.390625 84.472656 C 234.355469 83.457031 231.542969 84.011719 231.585938 85.175781 C 231.785156 90.777344 231.429688 96.402344 232.40625 101.945312 C 233.5 108.148438 236.210938 113.996094 239.886719 119.085938 C 246.996094 128.9375 258.371094 135.425781 270.242188 137.492188 C 281.488281 139.453125 293.683594 137.050781 302.722656 129.878906 C 313.152344 121.613281 318.867188 107.933594 320.789062 95.019531 C 322.269531 85.070312 320.382812 74.882812 314.464844 66.652344 C 309.125 59.226562 300.878906 54.363281 292.265625 51.695312 C 275.042969 46.363281 253.527344 49.679688 240.902344 63.246094 C 235.351562 69.203125 232.328125 76.914062 231.582031 84.957031 C 231.46875 86.195312 234.300781 85.722656 234.390625 84.695312"/><path fill="#A2999E" d="M 201.316406 56.792969 C 209.027344 35.90625 225.585938 20.722656 247.121094 15.019531 C 267.773438 9.546875 290.390625 12.742188 309.769531 21.222656 C 328.753906 29.527344 345.785156 43.898438 354.171875 63.160156 C 363.847656 85.40625 358.691406 109.804688 346.90625 130.148438 C 338.929688 143.914062 328.359375 157.167969 314.953125 165.941406 C 302.796875 173.894531 288.347656 177.417969 273.898438 176.613281 C 245.957031 175.058594 220.109375 157.53125 205.800781 133.925781 C 198.292969 121.539062 194.289062 107.128906 194.386719 92.648438 C 194.46875 80.324219 198.570312 68.683594 201.316406 56.792969 C 201.582031 55.632812 198.746094 56.023438 198.507812 57.054688 C 195.753906 68.984375 191.796875 80.558594 191.578125 92.914062 C 191.328125 106.648438 195.035156 120.105469 201.550781 132.140625 C 214.367188 155.816406 238.742188 173.175781 265.308594 177.480469 C 278.136719 179.5625 291.289062 178.257812 303.449219 173.679688 C 317.449219 168.410156 328.519531 158.613281 337.824219 147.148438 C 353.566406 127.761719 365.3125 103.183594 361.390625 77.675781 C 354.910156 35.539062 308.898438 10.824219 269.484375 10.667969 C 254.707031 10.609375 239.863281 14.027344 227.113281 21.617188 C 213.613281 29.664062 203.914062 42.417969 198.507812 57.054688 C 198.121094 58.101562 200.945312 57.792969 201.316406 56.792969"/><path fill="#A2999E" d="M 246.425781 95.320312 C 243.894531 74.046875 266.636719 60.296875 285.792969 63.800781 C 295.46875 65.570312 302.78125 72.261719 305.191406 81.804688 C 308.347656 94.316406 304.484375 110.496094 293.871094 118.367188 C 284.839844 125.066406 272.199219 125.207031 262.363281 120.277344 C 257.523438 117.851562 253.585938 114.007812 250.84375 109.367188 C 248.304688 105.066406 247.65625 100.078125 246.425781 95.320312 C 246.148438 94.242188 243.34375 94.949219 243.621094 96.023438 C 244.964844 101.242188 245.832031 106.375 248.617188 111.089844 C 251.550781 116.0625 256.230469 119.835938 261.398438 122.285156 C 271.429688 127.03125 283.648438 126.324219 293.242188 120.90625 C 311.664062 110.496094 315.953125 76.574219 296.21875 65.316406 C 274.957031 53.183594 240.511719 69.933594 243.621094 96.023438 C 243.746094 97.074219 246.5625 96.460938 246.425781 95.320312"/><path fill="#A2999E" d="M 240.039062 85.785156 C 242.128906 63.816406 264.289062 54.136719 284.144531 57.863281 C 293.519531 59.621094 302.402344 64.476562 307.867188 72.433594 C 314.429688 81.996094 313.554688 94.144531 309.960938 104.632812 C 306.613281 114.398438 300.90625 123.164062 291.234375 127.519531 C 282.902344 131.273438 273.253906 130.628906 264.832031 127.558594 C 256.3125 124.449219 249.039062 118.238281 244.527344 110.402344 C 240.027344 102.578125 240.355469 94.242188 240.039062 85.5625 C 240 84.550781 237.1875 85.105469 237.234375 86.265625 C 237.445312 92.085938 237.101562 97.808594 238.609375 103.5 C 240.183594 109.460938 243.539062 114.855469 247.785156 119.273438 C 255.96875 127.785156 267.929688 132.207031 279.644531 131.765625 C 292.011719 131.296875 302.820312 124.25 308.792969 113.539062 C 314.449219 103.394531 317.617188 90.523438 314.210938 79.148438 C 309.035156 61.871094 289.640625 54.539062 273.070312 55.421875 C 255.398438 56.359375 238.992188 67.5 237.230469 86.046875 C 237.113281 87.285156 239.941406 86.816406 240.039062 85.785156"/><path fill="#A2999E" d="M 255.851562 83.484375 C 264.410156 61.066406 302.058594 71.996094 300.332031 94.769531 C 299.828125 101.484375 295.75 107.808594 291.191406 112.535156 C 285.421875 118.515625 276.984375 119.585938 269.464844 116.589844 C 262.929688 113.980469 257.730469 108.464844 255.214844 101.949219 C 252.765625 95.613281 254.402344 89.765625 255.851562 83.484375 C 256.121094 82.324219 253.28125 82.714844 253.046875 83.746094 C 251.59375 90.015625 250.179688 95.488281 252.136719 101.863281 C 254.054688 108.117188 258.765625 113.246094 264.308594 116.535156 C 269.636719 119.695312 275.96875 120.648438 282.007812 119.46875 C 288.921875 118.117188 294.03125 113.179688 297.949219 107.625 C 304.578125 98.242188 305.226562 86.445312 296.855469 77.988281 C 289.863281 70.921875 278.910156 68.128906 269.289062 69.988281 C 261.71875 71.449219 255.773438 76.597656 253.046875 83.746094 C 252.648438 84.785156 255.472656 84.480469 255.851562 83.484375"/><path fill="#A2999E" d="M 215.300781 43.273438 C 228.933594 23.007812 251.238281 13.390625 275.347656 15.796875 C 298.25 18.085938 320.203125 30.164062 335.503906 47.15625 C 350.703125 64.046875 358.449219 86.832031 352.511719 109.214844 C 348.945312 122.675781 340.738281 134.429688 331.058594 144.230469 C 319.167969 156.269531 304.722656 166.726562 288.011719 170.539062 C 258.390625 177.289062 228.933594 160.414062 212.652344 136.273438 C 204.441406 124.105469 199.613281 109.742188 198.914062 95.085938 C 198.546875 87.421875 199.574219 79.730469 201.632812 72.355469 C 203.703125 64.953125 207.5 58.828125 210.898438 52.058594 C 212.363281 49.128906 213.835938 46.203125 215.300781 43.273438 C 215.945312 41.992188 213.132812 42.195312 212.679688 43.09375 C 207.085938 54.253906 200.488281 64.699219 197.710938 77.035156 C 194.527344 91.144531 196.015625 106 200.929688 119.519531 C 210.410156 145.597656 233.476562 167.003906 260.925781 172.453125 C 291.429688 178.507812 319.992188 161.191406 339.109375 138.542969 C 354.75 120.007812 361.941406 96.273438 354.054688 72.765625 C 340.34375 31.882812 288.710938 3.960938 247.191406 16.777344 C 232.871094 21.199219 220.996094 30.734375 212.679688 43.09375 C 211.910156 44.242188 214.746094 44.105469 215.300781 43.273438"/><path fill="#A2999E" d="M 213.511719 63.210938 C 221.394531 41.949219 239.863281 28.691406 262.203125 26.328125 C 283.394531 24.089844 305.644531 31 322.386719 44.019531 C 339.523438 57.351562 349.027344 77.945312 345.453125 99.640625 C 343.203125 113.324219 336.246094 125.792969 327.949219 136.707031 C 318.191406 149.527344 305.898438 159.574219 289.875 163.058594 C 263.835938 168.714844 236.691406 154.75 221.246094 134.152344 C 213.375 123.65625 208.648438 111.019531 207.769531 97.9375 C 206.957031 85.90625 210.839844 74.746094 213.511719 63.210938 C 213.78125 62.054688 210.941406 62.441406 210.703125 63.476562 C 207.910156 75.519531 204.175781 86.945312 205.019531 99.5 C 205.949219 113.289062 211.679688 126.417969 220.15625 137.21875 C 236.472656 158.003906 264.039062 169.933594 290.261719 164.617188 C 304.402344 161.75 316.730469 153.429688 325.996094 142.5625 C 335.074219 131.917969 342.75 119.816406 346.683594 106.304688 C 352.730469 85.53125 346.730469 64.269531 331.722656 48.941406 C 304.25 20.878906 249.511719 12.851562 221.652344 44.621094 C 216.808594 50.140625 213.246094 56.609375 210.703125 63.476562 C 210.316406 64.519531 213.140625 64.210938 213.511719 63.210938"/><path fill="#A2999E" d="M 225.289062 51.855469 C 254.457031 8.628906 320.410156 31.871094 338.121094 73.871094 C 342.511719 84.277344 343.433594 95.757812 340.714844 106.714844 C 337.261719 120.628906 327.988281 132.292969 317.445312 141.632812 C 304.683594 152.933594 289.671875 160.988281 272.226562 160.152344 C 257.503906 159.445312 243.714844 152.304688 233.164062 142.285156 C 220.695312 130.4375 212.753906 114.007812 211.546875 96.835938 C 210.921875 87.933594 212.492188 78.980469 215.695312 70.679688 C 218.214844 64.15625 222.148438 58.109375 225.289062 51.855469 C 225.933594 50.574219 223.121094 50.777344 222.671875 51.675781 C 216.890625 63.191406 210.476562 73.6875 208.964844 86.792969 C 207.34375 100.839844 210.988281 115.011719 217.914062 127.207031 C 231.644531 151.367188 259.597656 166.664062 287.332031 160.441406 C 302.664062 157 316.035156 146.734375 326.660156 135.535156 C 335.40625 126.308594 342.136719 115.007812 344.390625 102.390625 C 348.367188 80.109375 336.210938 58.886719 319.351562 45.1875 C 305.316406 33.78125 287.078125 26.5 268.855469 26.78125 C 250.019531 27.074219 233.222656 36.039062 222.671875 51.675781 C 221.894531 52.824219 224.730469 52.683594 225.289062 51.855469"/><path fill="#A2999E" d="M 242 43.777344 C 280.558594 10.398438 338.921875 54.160156 337.8125 99.167969 C 337.105469 127.730469 309.71875 147.546875 283.886719 153.09375 C 255.214844 159.253906 229.714844 138.609375 221.023438 112.339844 C 216.945312 100.011719 216.730469 86.550781 220.671875 74.164062 C 224.65625 61.667969 233.535156 53.261719 242 43.777344 C 243.132812 42.511719 240.429688 42.402344 239.742188 43.167969 C 231.558594 52.339844 223.175781 60.375 218.671875 72.128906 C 213.957031 84.425781 214.011719 98.191406 217.527344 110.769531 C 224.441406 135.523438 246.113281 155.652344 272.503906 155.871094 C 287.203125 155.992188 301.816406 149.695312 313.980469 141.859375 C 324.230469 135.253906 332.832031 126.125 337.402344 114.71875 C 345.699219 94.003906 337.210938 70.824219 323.285156 54.753906 C 313.054688 42.957031 298.988281 33.957031 283.550781 31.015625 C 267.6875 27.988281 251.882812 32.660156 239.742188 43.167969 C 238.484375 44.257812 241.246094 44.429688 242 43.777344"/><path fill="#A2999E" d="M 255.664062 40.089844 C 296.019531 19.277344 336.664062 65.804688 332.527344 104.84375 C 331.476562 114.785156 327.210938 124.097656 320.277344 131.308594 C 311.367188 140.570312 298.90625 145.335938 286.539062 147.800781 C 272.554688 150.59375 258.566406 149.761719 246.246094 142.058594 C 235.824219 135.546875 228.5 124.925781 224.539062 113.441406 C 219.796875 99.710938 220.105469 84.363281 225.515625 70.882812 C 228.449219 63.5625 233.167969 57.042969 238.980469 51.742188 C 243.980469 47.1875 250.113281 43.925781 255.664062 40.089844 C 257.226562 39.011719 254.871094 38.433594 253.910156 39.097656 C 244.3125 45.730469 234.773438 51.277344 228.019531 61.136719 C 221.25 71.015625 218.257812 83.035156 218.398438 94.914062 C 218.675781 118.605469 232.972656 141.859375 256.183594 148.992188 C 269.152344 152.972656 283.417969 150.90625 296.164062 147.074219 C 306.9375 143.835938 317.179688 138.242188 324.601562 129.652344 C 337.570312 114.640625 338.011719 93.492188 331.242188 75.636719 C 325.523438 60.570312 314.601562 47.0625 300.390625 39.28125 C 285.710938 31.246094 268.6875 31.476562 253.910156 39.097656 C 252.234375 39.960938 254.667969 40.601562 255.664062 40.089844"/><path fill="#F4E322" d="M 56.320312 24.253906 C 81.378906 44.574219 39.71875 93.058594 16.121094 54.34375 C 1.242188 30.894531 32.792969 6.289062 53.445312 22.449219 L 56.320312 24.253906"/><g clip-path="url(#b)"><path fill="#F4E322" d="M 148.765625 246.285156 C 188.066406 217.914062 238.898438 261.519531 238.1875 303.960938 C 238.003906 314.800781 233.996094 325.195312 226.980469 333.445312 C 217.5625 344.515625 203.851562 350.710938 190.1875 354.742188 C 176.496094 358.78125 161.941406 357.335938 149.597656 350.101562 C 138.484375 343.585938 130.289062 332.800781 125.515625 320.976562 C 120.089844 307.539062 119.34375 292.332031 123.761719 278.515625 C 126.148438 271.066406 130.28125 264.238281 135.542969 258.472656 C 139.632812 253.996094 144.59375 250.246094 149.019531 246.089844 C 150.242188 244.941406 147.496094 244.792969 146.757812 245.484375 C 137.949219 253.75 129.011719 260.902344 123.640625 272.054688 C 118.199219 283.339844 116.945312 296.238281 119 308.515625 C 123.070312 332.890625 141.402344 354.398438 166.398438 358.207031 C 180.527344 360.359375 195.128906 355.921875 207.777344 349.882812 C 218.53125 344.746094 228.253906 337.160156 234.445312 326.863281 C 245.359375 308.703125 241.40625 286.222656 230.878906 268.898438 C 222.363281 254.894531 209.050781 243.40625 193.46875 238.074219 C 177.609375 232.648438 160.535156 235.527344 147.015625 245.292969 C 145.472656 246.402344 147.816406 246.96875 148.765625 246.285156"/></g></svg>